<svg width="120" height="120" viewBox="0 0 120 120" fill="none" xmlns="http://www.w3.org/2000/svg">
<path fill-rule="evenodd" clip-rule="evenodd" d="M65.7032 -6.10352e-05C92.333 2.34632 113.942 22.4277 118.922 48.5073H93.6487C89.4779 36.1313 78.7655 26.8407 65.7032 24.8987V-6.10352e-05ZM118.921 71.4925C113.941 97.5722 92.333 117.654 65.7032 120V95.1171C78.7711 93.1743 89.4872 83.8763 93.654 71.4925H118.921ZM54.9726 119.976C28.4659 117.519 6.98467 97.485 2.02106 71.4925H27.5544C31.6645 83.7073 42.1468 92.9193 54.9726 95.0328V119.976V119.976ZM2.02106 48.5073C6.98467 22.5148 28.4655 2.48069 54.9726 0.0239693V24.983C42.1521 27.0956 31.6734 36.3007 27.5597 48.5073H2.02106Z" fill="#383084"/>
<path fill-rule="evenodd" clip-rule="evenodd" d="M26.2824 68.9719H0.686687C0.557165 68.1188 0.44615 67.26 0.353638 66.3951H25.7241C25.8797 67.2657 26.066 68.1249 26.2824 68.9719V68.9719Z" fill="#383084"/>
<path fill-rule="evenodd" clip-rule="evenodd" d="M119.647 66.3951C119.554 67.26 119.443 68.1188 119.314 68.9719H96.507H93.8209H29.7602C29.5193 68.1265 29.3105 67.2674 29.1368 66.3951H94.3792H96.1104H119.647Z" fill="#383084"/>
<path fill-rule="evenodd" clip-rule="evenodd" d="M25.5019 64.9925H0.219629C0.150433 64.1793 0.0961228 63.362 0.06073 62.5394H25.2449C25.3036 63.3653 25.3897 64.183 25.5019 64.9925V64.9925Z" fill="#383084"/>
<path fill-rule="evenodd" clip-rule="evenodd" d="M119.939 62.5394C119.904 63.362 119.849 64.1793 119.78 64.9925H97.5097H94.6007H28.8905C28.7663 64.1846 28.6709 63.3665 28.6061 62.5394H94.8577H97.7494H119.939Z" fill="#383084"/>
<path fill-rule="evenodd" clip-rule="evenodd" d="M25.1742 61.1373H0.015307C0.00604741 60.7224 0 60.3066 0 59.8892C0 59.4922 0.00405238 59.0959 0.011276 58.7009H25.1758C25.1617 59.1126 25.1524 59.526 25.1524 59.9413C25.1524 60.3416 25.1613 60.7403 25.1742 61.1373V61.1373Z" fill="#383084"/>
<path fill-rule="evenodd" clip-rule="evenodd" d="M95.9653 61.1373H94.9287H28.5275C28.5134 60.7399 28.5037 60.3416 28.5037 59.9409C28.5037 59.5255 28.5138 59.1126 28.5291 58.7009H94.9271H95.4537H119.989C119.996 59.0959 120 59.4922 120 59.8892C120 60.3066 119.994 60.7224 119.985 61.1373H95.9653V61.1373Z" fill="#383084"/>
<path fill-rule="evenodd" clip-rule="evenodd" d="M25.2476 57.2982H0.0549927C0.0891862 56.4927 0.139061 55.6917 0.204631 54.8952H25.5014C25.3916 55.688 25.3056 56.4891 25.2476 57.2982Z" fill="#383084"/>
<path fill-rule="evenodd" clip-rule="evenodd" d="M119.795 54.8952C119.861 55.6917 119.911 56.4927 119.945 57.2982H97.8786H94.8553H28.6102C28.6745 56.4882 28.7675 55.6872 28.8893 54.8952H94.6016H97.2893H119.795V54.8952Z" fill="#383084"/>
<path fill-rule="evenodd" clip-rule="evenodd" d="M25.7227 53.4929H0.336243C0.422703 52.6663 0.526088 51.8445 0.645542 51.0281H26.2513C26.0469 51.8388 25.8715 52.661 25.7227 53.4929Z" fill="#383084"/>
<path fill-rule="evenodd" clip-rule="evenodd" d="M119.354 51.0281C119.474 51.8445 119.577 52.6663 119.664 53.4929H96.1112H94.38H29.1352C29.3009 52.6589 29.498 51.8372 29.7253 51.0281H93.8515H95.1668H119.354Z" fill="#383084"/>
</svg>
